<?xml version="1.0" encoding="UTF-8"?>
<!DOCTYPE svg PUBLIC "-//W3C//DTD SVG 1.1//EN" "http://www.w3.org/Graphics/SVG/1.1/DTD/svg11.dtd">
<!-- Creator: CorelDRAW X7 -->
<svg xmlns="http://www.w3.org/2000/svg" xml:space="preserve" width="3.57988in" height="6.42362in" version="1.1" style="shape-rendering:geometricPrecision; text-rendering:geometricPrecision; image-rendering:optimizeQuality; fill-rule:evenodd; clip-rule:evenodd"
viewBox="0 0 3580 6424"
 xmlns:xlink="http://www.w3.org/1999/xlink">
 <defs>
  <style type="text/css">
   <![CDATA[
    .fil2 {fill:none}
    .fil1 {fill:white;fill-opacity:0.050980}
    .fil0 {fill:url(#id1)}
   ]]>
  </style>
   <clipPath id="id0">
    <path d="M0 0l3580 0 0 6424 -3580 0 0 -6424z"/>
   </clipPath>
  <linearGradient id="id1" gradientUnits="userSpaceOnUse" x1="152.665" y1="5132.46" x2="3427.22" y2="1291.16">
   <stop offset="0" style="stop-opacity:1; stop-color:#00173E"/>
   <stop offset="1" style="stop-opacity:1; stop-color:#1E3C70"/>
  </linearGradient>
 </defs>
 <g id="Camada_x0020_1">
  <metadata id="CorelCorpID_0Corel-Layer"/>
  <polygon class="fil0" points="0,0 3580,0 3580,6424 0,6424 "/>
  <g style="clip-path:url(#id0)">
   <g id="_2400758927120">
    <g>
     <path id="1" class="fil1" d="M3004 -358c-359,278 -1755,812 -2324,786 -367,894 -423,1472 18,2346 66,-61 144,-151 217,-205 952,-711 3594,-1672 3716,-2527 -175,145 -183,223 -443,404 -504,337 -1097,637 -1725,886 -402,160 -1671,691 -2040,392 -15,-282 504,-502 772,-649 313,-171 625,-318 948,-476 324,-159 631,-317 930,-493 164,-96 261,-153 422,-275 121,-91 299,-199 266,-435 -77,-59 -183,-92 -304,-123 -46,152 -81,141 -204,221 -92,60 -150,108 -249,148z"/>
     <path class="fil1" d="M4497 1659c-309,315 -1121,751 -1557,942 -606,264 -1313,554 -2059,422 151,278 506,485 612,598 80,-59 62,-77 166,-150 214,-152 430,-254 662,-383 694,-387 1078,-541 1780,-1005 287,-190 546,-372 695,-699 -112,87 -173,174 -299,275z"/>
     <path class="fil1" d="M3004 -358c99,-40 157,-88 249,-148 123,-80 158,-69 204,-221 -469,-6 -1085,143 -1498,290 -469,167 -844,389 -1086,668 272,-136 1797,-883 2131,-589z"/>
     <path class="fil1" d="M4188 446c260,-181 268,-259 443,-404 -98,-138 -548,-15 -686,18 -226,53 -426,113 -632,192 -215,82 -379,149 -573,248l-507 301c334,-109 1453,-567 1855,-434 152,50 60,15 100,79z"/>
     <path class="fil1" d="M4497 1659c126,-101 187,-188 299,-275 -12,-42 59,-116 -291,-99 -270,13 -678,131 -921,219 -420,152 -701,306 -1007,531 280,-90 1686,-688 1920,-376z"/>
     <path class="fil1" d="M1952 3833c243,60 390,161 716,151 123,-186 207,-260 364,-375 78,-58 123,-90 198,-150 75,-62 122,-121 183,-171 -578,403 -784,521 -1461,545z"/>
    </g>
    <path class="fil1" d="M590 300c-1258,1837 -803,4690 1583,6359 3,-778 -6,-789 25,-1367 321,-175 773,-448 1000,-550 -2574,-725 -3515,-2361 -2608,-4442z"/>
   </g>
  </g>
  <polygon class="fil2" points="0,0 3580,0 3580,6424 0,6424 "/>
 </g>
</svg>
