<?xml version="1.0" encoding="UTF-8"?>
<!DOCTYPE svg PUBLIC "-//W3C//DTD SVG 1.1//EN" "http://www.w3.org/Graphics/SVG/1.1/DTD/svg11.dtd">
<!-- Creator: CorelDRAW X7 -->
<svg xmlns="http://www.w3.org/2000/svg" xml:space="preserve" width="2.65416in" height="0.577882in" version="1.1" style="shape-rendering:geometricPrecision; text-rendering:geometricPrecision; image-rendering:optimizeQuality; fill-rule:evenodd; clip-rule:evenodd"
viewBox="0 0 2699 588"
 xmlns:xlink="http://www.w3.org/1999/xlink">
 <defs>
  <style type="text/css">
   <![CDATA[
    .fil0 {fill:white}
   ]]>
  </style>
 </defs>
 <g id="Camada_x0020_1">
  <metadata id="CorelCorpID_0Corel-Layer"/>
  <g id="_2400758975584">
   <path class="fil0" d="M323 46c-44,34 -216,100 -287,97 -45,110 -52,182 3,289 8,-7 17,-18 26,-25 118,-88 444,-206 459,-312 -21,18 -22,28 -54,50 -63,41 -136,79 -213,109 -50,20 -207,86 -252,49 -2,-35 62,-62 95,-80 39,-22 77,-40 117,-59 40,-20 78,-39 115,-61 20,-12 32,-19 52,-34 15,-11 37,-25 33,-54 -10,-7 -23,-11 -38,-15 -5,19 -10,17 -25,27 -11,8 -18,14 -31,19z"/>
   <path class="fil0" d="M508 295c-38,39 -139,93 -192,116 -75,33 -163,68 -255,52 19,35 63,60 76,74 10,-7 7,-9 20,-18 27,-19 53,-32 82,-48 86,-48 133,-67 220,-124 35,-23 67,-46 86,-86 -14,10 -22,21 -37,34z"/>
   <path class="fil0" d="M323 46c13,-5 20,-11 31,-19 15,-10 20,-8 25,-27 -58,-1 -134,18 -185,36 -58,20 -104,48 -134,82 34,-16 222,-109 263,-72z"/>
   <path class="fil0" d="M470 145c32,-22 33,-32 54,-50 -12,-17 -67,-2 -84,2 -28,7 -53,14 -78,24 -27,10 -47,18 -71,31l-63 37c42,-14 180,-70 229,-54 19,6 8,2 13,10z"/>
   <path class="fil0" d="M508 295c15,-13 23,-24 37,-34 -2,-5 7,-15 -36,-12 -34,1 -84,16 -114,27 -52,18 -86,37 -124,65 34,-11 208,-85 237,-46z"/>
   <path class="fil0" d="M193 563c31,8 49,20 89,19 15,-23 26,-32 45,-46 10,-8 15,-12 24,-19 10,-8 15,-15 23,-21 -71,50 -97,64 -181,67z"/>
  </g>
  <g id="_2400758976960">
   <path class="fil0" d="M1060 257c130,-17 126,164 30,161 -35,-1 -32,-5 -34,-32 -1,-28 -1,-103 4,-129zm-95 328c38,0 111,9 137,-5 -34,-12 -41,-1 -44,-45 -3,-31 -4,-65 2,-96 52,1 46,-4 69,30 21,31 64,97 98,110 23,9 76,12 93,1 -52,-25 -22,12 -94,-65 -14,-15 -66,-78 -74,-100 44,-25 94,-105 33,-157 -35,-31 -177,-34 -229,-21 54,20 47,-24 46,167 0,226 -2,141 -37,181z"/>
   <path class="fil0" d="M743 325l47 118 -89 -2 42 -116zm-171 255c20,13 83,4 114,5l-29 -15c3,-36 17,-86 42,-104l105 0c19,75 43,78 29,117 28,2 97,9 116,-3 -68,-29 -52,-29 -107,-162l-58 -144c-7,-16 -12,-34 -26,-46 -27,26 -122,304 -141,329 -18,25 -21,14 -45,23z"/>
   <path class="fil0" d="M1491 395c151,1 130,131 104,156 -23,23 -92,29 -102,-10 -6,-24 -2,-116 -2,-146zm9 -150c49,-8 78,19 81,68 5,65 -26,72 -84,68 -17,-38 -3,-106 0,-131 0,-3 1,-3 3,-5zm-46 205l-2 91c-4,37 -4,25 -29,39 79,6 176,13 213,-40 46,-68 -1,-138 -60,-153l21 -29c27,-37 27,-84 -1,-108 -35,-29 -127,-20 -180,-20 49,27 38,18 38,90 0,43 0,87 0,130z"/>
   <path class="fil0" d="M2015 580l91 1 -32 -13 -9 -222 120 122c27,28 95,102 126,116l4 -286c16,-12 12,-3 25,-15l-88 0c25,12 26,0 34,25l6 210c-33,-14 -96,-94 -121,-121 -21,-22 -38,-34 -59,-57 -20,-22 -36,-50 -67,-62l0 251c-1,39 -2,34 -30,51z"/>
   <path class="fil0" d="M2430 298l2 231c-1,42 0,34 -25,51l95 1 -30 -14 -4 -135c108,94 113,159 231,148 -43,-25 -36,-5 -108,-74 -25,-24 -77,-68 -88,-97 25,-22 47,-44 73,-68 74,-65 23,-22 82,-58l-70 0c-13,22 23,-2 -47,68 -24,23 -44,50 -72,67 -4,-87 -10,-110 26,-135l-95 0c12,13 12,3 30,15z"/>
   <path class="fil0" d="M1826 344c14,17 39,92 44,112l-85 -1 41 -111zm-147 235l87 2c-19,-13 -32,-9 4,-90 13,-30 22,-20 106,-19 27,45 33,89 41,108l77 1c-58,-32 -45,-33 -91,-144 -13,-33 -50,-142 -71,-160 -17,23 -51,126 -65,160 -45,112 -31,120 -88,142z"/>
  </g>
 </g>
</svg>
