<?xml version="1.0" encoding="UTF-8"?>
<!DOCTYPE svg PUBLIC "-//W3C//DTD SVG 1.1//EN" "http://www.w3.org/Graphics/SVG/1.1/DTD/svg11.dtd">
<!-- Creator: CorelDRAW X7 -->
<svg xmlns="http://www.w3.org/2000/svg" xml:space="preserve" width="0.56872in" height="0.28413in" version="1.1" style="shape-rendering:geometricPrecision; text-rendering:geometricPrecision; image-rendering:optimizeQuality; fill-rule:evenodd; clip-rule:evenodd"
viewBox="0 0 107 54"
 xmlns:xlink="http://www.w3.org/1999/xlink">
 <defs>
  <style type="text/css">
   <![CDATA[
    .fil0 {fill:white}
   ]]>
  </style>
 </defs>
 <g id="Camada_x0020_1">
  <metadata id="CorelCorpID_0Corel-Layer"/>
  <g id="_1631302709328">
   <path class="fil0" d="M9 33c-1,-6 4,-11 8,-13 5,-3 12,-1 14,3l-22 10zm-6 11l40 -17c-1,-11 -16,-21 -30,-15 -11,4 -18,18 -10,32z"/>
   <path class="fil0" d="M59 53l4 -8 -7 -3 -1 -42 -8 0c0,11 0,22 0,33 0,10 -1,15 6,18 2,1 5,2 6,2z"/>
   <path class="fil0" d="M82 44l-3 8c5,3 16,1 21,-4 3,-3 8,-9 7,-12l-9 -2c-1,4 -2,6 -5,8 -4,3 -6,3 -11,2z"/>
   <path class="fil0" d="M72 48c0,-1 5,-6 5,-7 -5,-6 -6,-12 0,-19 0,-1 0,-1 -1,-2 -1,0 -1,-1 -2,-1 0,-1 -1,-1 -1,-2 -1,-1 -1,-1 -2,-2 -4,3 -7,11 -7,17 0,6 4,14 8,16z"/>
   <path class="fil0" d="M79 11l2 9c5,-1 8,-2 12,1 4,3 4,4 5,8 2,0 8,-1 9,-2 0,-5 -5,-11 -9,-14 -6,-3 -15,-5 -19,-2z"/>
   <path class="fil0" d="M15 43c-1,0 -5,7 -5,7 5,2 6,3 12,3 5,0 13,-3 15,-6 -2,-2 -5,-5 -6,-6 -2,1 -7,6 -16,2z"/>
  </g>
 </g>
</svg>
